<?xml version="1.0" encoding="utf-8"?>
<!-- Generator: Adobe Illustrator 24.3.0, SVG Export Plug-In . SVG Version: 6.00 Build 0)  -->
<svg version="1.1" id="Layer_1" xmlns="http://www.w3.org/2000/svg" xmlns:xlink="http://www.w3.org/1999/xlink" x="0px" y="0px"
	 viewBox="0 0 342.59 158.71" style="enable-background:new 0 0 342.59 158.71;" xml:space="preserve">
<g>
	<path d="M16.85,99.95c4.08-2.36,7.91-5.74,7.91-12.13c0-6.96-6.45-11.68-17.1-11.68H0v50.16h11.11c9.57,0,18.19-5.1,18.19-13.98
		C29.29,105.51,23.1,101.23,16.85,99.95z M5.68,77.94c6.57-0.38,14.04,5.42,14.04,13.08c0,2.74-1.53,6.13-4.02,8.81
		c-0.96-0.13-1.92-0.19-2.81-0.19H5.68V77.94z M21,122.61c-1.91,0.96-4.72,1.85-7.15,1.85H5.68v-22.97h6
		c6.83,0,11.74,5.17,11.74,12.13C23.42,116.04,23.1,119.42,21,122.61z"/>
	<path d="M71.12,106.59c0,9.25-2.49,18.32-14.62,18.32c-9.96,0-16.91-5.55-16.91-20.55V76.15h-5.68v28.4
		c0,16.66,8.17,22.72,21.25,22.72c13.08,0,20.55-10.47,20.55-23.1V76.15h-4.59V106.59z"/>
	<path d="M119.86,122.04v-1.53c-3.38,2.04-7.34,3.51-11.74,3.51c-11.62,0-21.56-8.68-21.56-24c0-13.98,7.13-22.53,18.49-22.53
		c6.19,0,10.79,2.62,14.81,6.64V79.4c-3.96-2.74-8.74-3.89-15.38-3.89c-12.25,0-23.73,9.64-23.73,26.23
		c0,15.76,10.77,25.4,23.73,25.4C109.46,127.14,115.01,125.99,119.86,122.04z"/>
	<path d="M145.01,127.14c4.98,0,10.53-1.15,15.38-5.11v-1.53c-3.38,2.04-7.34,3.51-11.74,3.51c-11.62,0-21.56-8.68-21.56-24
		c0-13.98,7.13-22.53,18.49-22.53c6.19,0,10.79,2.62,14.81,6.64V79.4c-3.96-2.74-8.74-3.89-15.38-3.89
		c-12.25,0-23.73,9.64-23.73,26.23C121.29,117.51,132.06,127.14,145.01,127.14z"/>
	<polygon points="189.71,123.44 172.28,125.04 172.28,101.93 185.11,102.57 185.11,99.96 172.28,100.59 172.28,77.49 189.71,79.09 
		189.71,76.15 166.6,76.15 166.6,126.31 189.71,126.31 	"/>
	<polygon points="196.03,76.15 196.03,126.31 221.75,126.31 221.75,123.44 201.71,125.04 201.71,76.15 	"/>
	<polygon points="233.69,76.15 228.01,76.15 228.01,126.31 253.73,126.31 253.73,123.44 233.69,125.04 	"/>
	<path d="M279.24,75.7l-20.23,50.61h3.7l6.96-19.28h16.53l7.72,19.28h6.19L279.76,75.7H279.24z M270.37,105.06l7.15-19.85
		l7.91,19.85H270.37z"/>
	<polygon points="290.37,79.09 307.73,77.75 307.73,126.31 313.41,126.31 313.41,77.75 330.7,79.09 330.7,76.15 290.37,76.15 	"/>
	<rect x="336.91" y="76.15" width="5.68" height="50.16"/>
	<path d="M171.14,55.23c3.6,0,4.96-3.84,5.31-5.1c0.25,0.05,0.51,0.07,0.75,0.07c1.39,0,2.65-0.76,3.46-2.08
		c0.76-1.23,1.17-2.88,1.17-4.64c0-1.94-0.34-3.67-1.02-5.17c0.3,0.14,0.61,0.22,0.92,0.22c0.17,0,0.35-0.02,0.56-0.08
		c0.87,1.94,1.37,3.79,1.37,5.09c0,1.05-0.22,1.97-0.68,2.82l-0.04,0.08L183,46.5c0.73,0.68,1.54,1.07,2.25,1.07
		c0.63,0,1.13-0.32,1.44-0.92c0.59,0.42,1.82,1.01,2.96,1.01c0.5,0,0.9-0.13,1.21-0.4c0.91-0.91,0.72-3-0.06-4.3
		c0.54-0.29,0.92-0.84,1.04-1.52c0.15-0.82-0.09-1.63-0.64-2.18l-0.06-0.06l-0.07,0.05c-0.35,0.22-0.81,0.33-1.35,0.33
		c-1.75,0-4.27-1.16-6.01-2.33c0.12-0.28,0.18-0.58,0.18-0.88c0-0.06,0-0.13-0.01-0.19c1.56,1.41,3.9,2.12,6.95,2.12
		c1.99,0,4.77-0.62,6.07-2.35c0.65-0.87,0.82-1.89,0.51-3.04c0.75-0.13,5.24-1.13,5.24-5.46c0-3.6-3.84-4.96-5.1-5.31
		c0.21-1.13-0.06-2.29-0.73-3.13c-1.13-1.4-3.39-2.26-5.91-2.26c-2.49,0-4.83,0.85-6.8,2.46c0.02-0.12,0.03-0.24,0.03-0.35
		c0-0.31-0.07-0.62-0.21-0.92c2.09-1.37,4.02-2.06,5.74-2.06c0.56,0,1.09,0.07,1.58,0.22l0.09,0.03l0.04-0.08
		c0.32-0.57,0.64-1.25,0.64-1.95c0-0.87-0.42-1.45-1.21-1.69c0.47-1.03,1.03-3.32-0.12-4.18c-0.29-0.23-0.68-0.34-1.16-0.34
		c-1.14,0-2.43,0.57-3.14,1.14c-0.37-0.43-0.98-0.69-1.65-0.69c-0.83,0-1.59,0.37-2.03,1l-0.05,0.07l0.06,0.07
		c0.43,0.5,0.67,1.34,0.67,2.38c0,1.48-0.63,3.47-1.22,4.86c-0.01,0-0.02,0-0.03,0c-0.05-0.01-0.11-0.01-0.17-0.01
		c-0.32,0-0.64,0.08-0.94,0.22c0.64-1.4,0.95-3.08,0.95-5.12c0-1.64-0.38-3.28-1.05-4.5c-0.79-1.45-1.93-2.22-3.29-2.22
		c-0.34,0-0.7,0.05-1.06,0.15C176.46,4.49,175.47,0,171.14,0c-3.6,0-4.96,3.84-5.31,5.1c-0.25-0.05-0.5-0.07-0.75-0.07
		c-1.4,0-2.66,0.76-3.47,2.08c-0.76,1.23-1.17,2.88-1.17,4.64c0,1.95,0.35,3.59,1.06,5.01c-0.21-0.06-0.41-0.09-0.6-0.09
		c-0.16,0-0.32,0.02-0.5,0.06c-0.95-2.06-1.47-3.88-1.47-5.12c0-1.05,0.22-1.97,0.69-2.82l0.04-0.08l-0.06-0.06
		c-0.73-0.68-1.54-1.07-2.25-1.07c-0.63,0-1.13,0.32-1.44,0.92c-0.59-0.42-1.89-1.04-3.03-1.04c-0.5,0-0.9,0.13-1.21,0.4
		c-0.89,0.89-0.67,3.01,0.13,4.34c-0.54,0.29-0.92,0.84-1.04,1.52c-0.15,0.82,0.09,1.63,0.63,2.18l0.06,0.06l0.07-0.05
		c0.36-0.23,0.83-0.34,1.4-0.34c1.81,0,4.33,1.16,6.04,2.31c-0.14,0.3-0.22,0.62-0.22,0.95c0,0.08,0.01,0.16,0.02,0.25
		c-1.67-1.42-4.21-2.23-7-2.23c-1.99,0-4.77,0.62-6.07,2.35c-0.65,0.87-0.82,1.89-0.51,3.04c-0.75,0.14-5.24,1.13-5.24,5.46
		c0,3.59,3.84,4.96,5.1,5.31c-0.21,1.13,0.06,2.29,0.73,3.13c1.13,1.4,3.39,2.26,5.91,2.26c2.55,0,4.67-0.79,6.47-2.42
		c-0.02,0.12-0.03,0.24-0.03,0.35c0,0.35,0.08,0.69,0.25,1.01c-2.13,1.39-4.07,2.1-5.76,2.1c-0.52,0-1.02-0.07-1.48-0.21l-0.09-0.03
		L151,39.27c-0.32,0.57-0.65,1.25-0.65,1.95c0,0.87,0.42,1.45,1.21,1.69c-0.48,1.05-0.9,3.37,0.23,4.22
		c0.29,0.23,0.68,0.34,1.16,0.34c1.1,0,2.3-0.59,3.03-1.18c0.37,0.43,0.98,0.69,1.65,0.69c0.83,0,1.59-0.37,2.03-1l0.05-0.07
		l-0.06-0.07c-0.43-0.5-0.67-1.34-0.67-2.38c0-1.52,0.59-3.6,1.18-4.99c0.01,0,0.02,0,0.02,0c0.03,0,0.06,0.01,0.09,0.01
		c0.36,0,0.71-0.09,1.02-0.26c-0.48,1.09-1.01,2.84-1.01,5.2c0,1.64,0.38,3.28,1.05,4.5c0.79,1.45,1.93,2.22,3.29,2.22
		c0.34,0,0.7-0.05,1.06-0.15C165.81,50.74,166.81,55.23,171.14,55.23z M152.38,42.61l0.08-0.13l-0.14-0.04
		c-0.6-0.17-0.97-0.44-1.13-0.81c-0.2-0.43-0.12-1.01,0.25-1.82c0.29,0.08,0.63,0.12,1.02,0.12c1.42,0,3.76-0.6,6.11-2.29
		c0.3,0.39,0.72,0.66,1.19,0.77c-0.63,1.38-1.36,3.56-1.36,5.25c0,0.83,0.21,1.59,0.59,2.15c-0.41,0.28-0.83,0.43-1.24,0.43
		c-0.54,0-1.06-0.26-1.53-0.76l-0.07-0.08l-0.08,0.07c-0.51,0.42-1.76,1.23-2.82,1.23c-0.34,0-0.61-0.08-0.82-0.25
		C151.59,45.81,151.69,43.71,152.38,42.61z M160.34,34.63c0.77,0,1.62,0.69,1.62,1.62c0,0.94-0.71,1.68-1.62,1.68
		c-0.93,0-1.65-0.74-1.65-1.68C158.69,35.33,159.4,34.63,160.34,34.63z M162.07,37.58l0.32-0.63l-0.08,0.08
		c0.08-0.23,0.12-0.47,0.12-0.71c0-1.19-0.97-2.16-2.16-2.16c-0.74,0-1.42,0.38-1.81,1c-1.18,1.16-3.17,2.7-6.7,2.7
		c-2.36,0-4.35-0.74-5.32-1.98c-0.69-0.89-0.86-1.91-0.54-3.22l0.03-0.11l-0.11-0.02c-0.05-0.01-4.85-1.07-4.85-4.82
		c0-4.32,4.87-4.97,4.92-4.98l0.13-0.01l-0.04-0.13c-0.33-1.22-0.19-2.18,0.46-3.02c1.14-1.49,3.54-2.02,5.4-2.02
		c1.4,0,4.91,0.23,7.17,2.33l0.03,0.02c0.39,0.67,1.1,1.09,1.87,1.09c1.19,0,2.16-0.97,2.16-2.16c0-0.73-0.36-1.4-0.97-1.8
		c-0.82-1.56-1.11-3.96-1.11-5.2c0-3,1.26-6.02,4.09-6.02c0.36,0,0.69,0.05,1.15,0.16l0.12,0.03l0.02-0.12
		c0.01-0.05,1.06-4.85,4.79-4.85c4.29,0,4.94,4.87,4.94,4.92l0.01,0.13l0.13-0.04c0.46-0.12,0.79-0.18,1.14-0.18
		c1.3,0,2.35,0.7,3.05,2.03c0.56,1.07,0.88,2.53,0.88,4c0,2.48-0.33,4.32-1,5.63c-0.32,0.39-0.49,0.86-0.49,1.35
		c0,1.19,0.97,2.16,2.16,2.16c0.73,0,1.41-0.37,1.81-0.99l0.11-0.1c1.95-1.76,4.28-2.65,6.93-2.65c2.36,0,4.35,0.74,5.32,1.98
		c0.69,0.89,0.86,1.91,0.54,3.22l-0.03,0.11l0.12,0.02c0.05,0.01,4.85,1.07,4.85,4.82c0,4.32-4.87,4.97-4.92,4.98l-0.13,0.01
		l0.04,0.13c0.35,1.26,0.22,2.19-0.42,3.02c-1.13,1.49-3.55,2.02-5.44,2.02c-3.35,0-5.59-0.68-7.04-2.15l-0.04-0.04
		c-0.37-0.75-1.11-1.22-1.94-1.22c-1.19,0-2.16,0.97-2.16,2.16c0,0.52,0.19,1.02,0.53,1.41l0.03,0.06c0.77,1.49,1.16,3.36,1.16,5.56
		c0,1.52-0.34,2.99-0.93,4.05c-0.72,1.29-1.81,1.97-3.16,1.97c-0.36,0-0.69-0.05-1.15-0.16l-0.12-0.03l-0.02,0.12
		c-0.01,0.05-1.04,4.85-4.79,4.85c-4.26,0-4.94-4.87-4.94-4.92l-0.02-0.13l-0.13,0.03c-0.45,0.12-0.78,0.18-1.14,0.18
		c-1.3,0-2.35-0.7-3.05-2.03c-0.56-1.07-0.88-2.53-0.88-4C160.98,40.94,161.34,39,162.07,37.58z M160.96,20.5
		c-0.94,0-1.68-0.71-1.68-1.62c0-0.93,0.74-1.65,1.68-1.65c0.92,0,1.62,0.71,1.62,1.65C162.58,19.66,161.93,20.5,160.96,20.5z
		 M190,12.73l-0.08,0.12l0.14,0.04c0.6,0.17,0.97,0.44,1.13,0.81c0.19,0.43,0.11,1.01-0.25,1.82c-0.31-0.09-0.67-0.13-1.09-0.13
		c-1.44,0-3.8,0.59-6.1,2.23c-0.28-0.4-0.69-0.69-1.18-0.82c0.65-1.4,1.4-3.56,1.4-5.13c0-0.83-0.21-1.59-0.59-2.15
		c0.41-0.28,0.83-0.43,1.24-0.43c0.54,0,1.06,0.26,1.53,0.76l0.07,0.08l0.08-0.07c0.58-0.48,1.9-1.19,2.92-1.19
		c0.34,0,0.61,0.08,0.82,0.25C190.75,9.45,190.86,11.35,190,12.73z M181.92,20.56c-0.8,0-1.62-0.61-1.62-1.62
		c0-0.94,0.71-1.68,1.62-1.68c0.93,0,1.65,0.74,1.65,1.68C183.57,19.86,182.86,20.56,181.92,20.56z M180.05,36.32
		c0-0.8,0.61-1.62,1.62-1.62c0.94,0,1.68,0.71,1.68,1.62c0,0.93-0.74,1.65-1.68,1.65C180.75,37.97,180.05,37.26,180.05,36.32z
		 M190,42.6l0.05,0.1c0.53,0.93,1.16,2.99,0.3,3.78c-0.23,0.21-0.58,0.32-1.03,0.32c-0.98,0-2.16-0.44-2.74-1.01l-0.11-0.11
		l-0.07,0.14c-0.33,0.7-0.76,1.04-1.3,1.04c-0.41,0-0.89-0.2-1.46-0.6c0.33-0.59,0.52-1.49,0.52-2.49c0-1.4-0.6-3.52-1.54-5.41
		c0.37-0.16,0.69-0.43,0.92-0.78c1.71,1.2,4.34,2.59,6.22,2.59c0.45,0,0.85-0.08,1.18-0.24c0.26,0.54,0.62,1.77-0.85,2.62L190,42.6z
		 M152.5,12.61l0.1-0.06l-0.05-0.1c-0.49-0.85-1.26-3-0.37-3.82c0.23-0.21,0.58-0.32,1.03-0.32c0.97,0,2.23,0.47,2.81,1.05
		l0.11,0.11l0.07-0.14c0.33-0.7,0.76-1.04,1.3-1.04c0.41,0,0.89,0.2,1.46,0.6c-0.33,0.59-0.52,1.49-0.52,2.49
		c0,1.38,0.62,3.52,1.58,5.45c-0.34,0.15-0.63,0.38-0.84,0.68c-1.37-0.96-4.18-2.53-6.28-2.53c-0.48,0-0.89,0.08-1.23,0.25
		C151.39,14.7,151.02,13.47,152.5,12.61z"/>
	<path d="M170.08,35.69l0.03,0.02l2.35,0l10.13-6.79l0.05-0.04l-0.01-2.57l-10.06-6.7l-0.03-0.02l-2.54,0l-10.02,6.71l-0.05,0.04
		l0,2.55L170.08,35.69z M172.38,20.17l9.69,6.45l0.01,1.96l-9.79,6.56l-2.01,0l-9.78-6.55l0-1.94l9.68-6.48L172.38,20.17z"/>
	<path d="M169.32,37.7h3.92l11.41-7.7l0.02-0.02l0-4.79l-11.34-7.66l-0.01-0.01l-4.11,0l-11.29,7.69l-0.02,0.02V30l11.41,7.69
		L169.32,37.7z M173.11,18.12l10.96,7.31l0.01,4.25l-11.05,7.43l-3.5,0l-11.04-7.42l0-4.23l10.95-7.35H173.11z"/>
	<path d="M166.21,15.98c0.01,0.03,0.02,0.06,0.03,0.09c0.03,0.06,0.06,0.12,0.08,0.19l0.04,0.09l0.08-0.02
		c0.71-0.19,2.6-0.64,4.91-0.64c2.26,0,4.1,0.42,4.78,0.6l0.09,0.02l0.1-0.24c0.02-0.04,0.03-0.08,0.05-0.12
		c0.01-0.02,0.02-0.05,0.02-0.07c0.25-0.64,0.37-1.29,0.37-1.93c0-3.02-2.46-5.48-5.48-5.48s-5.48,2.46-5.48,5.48
		c0,0.66,0.13,1.32,0.38,1.96C166.19,15.94,166.2,15.96,166.21,15.98z M166.4,14.33c0-2.91,2.05-5.02,4.89-5.02
		c2.83,0,4.89,2.11,4.89,5.02c0,0.51-0.11,0.93-0.22,1.3c-1.54-0.35-3.13-0.54-4.59-0.54c-1.52,0-3.16,0.19-4.72,0.56
		C166.49,15.23,166.4,14.86,166.4,14.33z"/>
	<path d="M186.8,27.86c0,1.19-0.28,2.49-0.79,3.66l-0.03,0.08l0.04,0.02c0.14,0.07,0.28,0.13,0.44,0.2
		c0.79,0.32,1.63,0.48,2.49,0.48c3.15,0,5.7-2.08,5.7-4.64S192.1,23,188.96,23c-0.92,0-1.82,0.19-2.66,0.55
		c-0.04,0.02-0.08,0.03-0.11,0.05c-0.09,0.04-0.18,0.08-0.27,0.12l-0.1,0.05l0.02,0.04C186.06,24.3,186.8,26.02,186.8,27.86z
		 M186.57,23.98c0.69-0.27,1.41-0.41,2.15-0.41c2.82,0,5.11,1.83,5.11,4.07s-2.29,4.07-5.11,4.07c-0.68,0-1.34-0.12-1.98-0.34
		c0.46-1.16,0.7-2.37,0.7-3.51C187.43,26.6,187.13,25.26,186.57,23.98z"/>
	<path d="M176.37,39.29c-0.01-0.03-0.02-0.06-0.03-0.09c-0.03-0.08-0.07-0.16-0.11-0.23l-0.02-0.04l-0.09,0.02
		c-0.71,0.19-2.6,0.64-4.9,0.64c-2.17,0-3.93-0.38-4.78-0.6l-0.09-0.02L166.33,39c-0.03,0.07-0.06,0.13-0.09,0.2
		c-0.02,0.04-0.03,0.08-0.04,0.11c-0.01,0.03-0.02,0.05-0.03,0.08c-0.25,0.64-0.37,1.29-0.37,1.93c0,3.02,2.46,5.48,5.48,5.48
		s5.48-2.46,5.48-5.48c0-0.66-0.13-1.32-0.38-1.96C176.38,39.33,176.37,39.31,176.37,39.29z M176.17,40.94
		c0,2.91-2.05,5.02-4.89,5.02c-2.83,0-4.89-2.11-4.89-5.02c0-0.51,0.11-0.93,0.22-1.3c1.54,0.35,3.13,0.54,4.59,0.54
		c1.52,0,3.16-0.19,4.72-0.56C176.08,40.04,176.17,40.42,176.17,40.94z"/>
	<path d="M155.85,27.43c0-1.19,0.28-2.48,0.79-3.66l0.03-0.08l-0.04-0.02c-0.14-0.07-0.28-0.13-0.44-0.19
		c-0.79-0.32-1.63-0.48-2.49-0.48c-3.15,0-5.7,2.08-5.7,4.64s2.56,4.64,5.7,4.64c0.92,0,1.82-0.19,2.66-0.55
		c0.04-0.02,0.08-0.03,0.12-0.05c0.09-0.04,0.18-0.07,0.26-0.12c0.01-0.01,0.02-0.01,0.04-0.02l0.06-0.03l-0.02-0.04
		C156.59,30.99,155.85,29.27,155.85,27.43z M156.08,31.31c-0.69,0.27-1.41,0.41-2.15,0.41c-2.82,0-5.11-1.83-5.11-4.07
		s2.29-4.07,5.11-4.07c0.68,0,1.34,0.12,1.98,0.34c-0.46,1.16-0.7,2.38-0.7,3.51C155.22,28.68,155.52,30.02,156.08,31.31z"/>
	<path d="M107.77,147.92c-0.09,0-0.17,0.05-0.23,0.15l-4.23,6.34l-4.27-6.34c-0.06-0.1-0.13-0.16-0.25-0.16
		c-0.12,0-0.24,0.11-0.24,0.22l-0.61,10.1c0,0.15,0,0.22,0.13,0.22h0.64c0.13,0,0.15-0.04,0.16-0.24l0.44-8.02l3.76,5.48
		c0.05,0.07,0.07,0.09,0.12,0.09c0.02,0,0.03,0,0.05,0c0.01,0,0.03,0,0.04,0c0.05,0,0.07-0.02,0.12-0.09l3.76-5.56l0.45,8.17
		c0,0.08,0.01,0.16,0.12,0.16h0.64c0.15,0,0.18-0.04,0.18-0.16l-0.58-10.16C107.98,148.03,107.89,147.92,107.77,147.92z"/>
	<path d="M113.57,148.04H113c-0.15,0-0.19,0.03-0.19,0.21v10.04c0,0.14,0.04,0.16,0.18,0.16h0.55c0.15,0,0.18-0.03,0.18-0.16v-10.04
		C113.71,148.09,113.68,148.04,113.57,148.04z"/>
	<path d="M124.67,157.64h-5.23v-9.46c0-0.09,0-0.13-0.1-0.13h-0.67c-0.11,0-0.13,0.05-0.13,0.15v10.11c0,0.12,0.03,0.15,0.13,0.15
		h6.02c0.14,0,0.15-0.03,0.15-0.19v-0.46C124.83,157.65,124.8,157.64,124.67,157.64z"/>
	<path d="M132.7,147.91l-0.01-0.01c-0.03-0.05-0.05-0.11-0.14-0.11s-0.11,0.05-0.14,0.11l-0.01,0.01c-0.94,1.86-4.43,9.05-5.03,10.3
		c-0.05,0.09-0.07,0.16-0.04,0.2c0.03,0.04,0.09,0.05,0.18,0.05h0.54c0.17,0,0.21-0.06,0.28-0.2l1.09-2.29h6.22l1.12,2.35
		c0.06,0.11,0.09,0.14,0.19,0.14h0.66c0.07,0,0.12-0.02,0.14-0.05c0.02-0.04,0.02-0.09-0.02-0.17
		C137.13,156.94,133.68,149.88,132.7,147.91z M135.3,155.18h-5.5c0.17-0.35,1.56-3.23,2.44-5.13c0.14-0.31,0.27-0.56,0.31-0.62
		c0.05,0.07,0.19,0.38,0.28,0.57l0.03,0.07C133.77,151.93,135.13,154.82,135.3,155.18z"/>
	<path d="M149.38,148.04h-0.6c-0.12,0-0.16,0.03-0.16,0.16v8.36c-0.56-0.68-6.14-7.49-7.09-8.53c-0.08-0.08-0.15-0.12-0.25-0.12
		c-0.1,0-0.16,0.06-0.16,0.15v10.2c0,0.15,0.04,0.18,0.15,0.18h0.63c0.12,0,0.13-0.04,0.13-0.16v-8.32c0.57,0.68,6.34,7.62,7.06,8.5
		c0.06,0.08,0.13,0.13,0.25,0.13c0.12,0,0.19-0.06,0.19-0.16v-10.19C149.53,148.1,149.52,148.04,149.38,148.04z"/>
	<path d="M164.4,152.68c-0.19-1.82-1.23-3.33-2.74-4.16c-0.02-0.01-0.03-0.02-0.05-0.03c-0.29-0.16-0.59-0.28-0.91-0.38
		c-0.03-0.01-0.06-0.02-0.08-0.03c-0.32-0.09-0.64-0.16-0.98-0.2c-0.03,0-0.07-0.01-0.1-0.01c-0.17-0.02-0.34-0.05-0.52-0.05
		s-0.34,0.03-0.52,0.05c-0.03,0-0.07,0.01-0.1,0.01c-0.34,0.04-0.66,0.1-0.98,0.2c-0.03,0.01-0.06,0.02-0.09,0.03
		c-0.32,0.1-0.62,0.23-0.9,0.38c-0.02,0.01-0.04,0.02-0.06,0.03c-0.3,0.16-0.58,0.35-0.83,0.57c0,0,0,0,0,0
		c-1.05,0.87-1.75,2.13-1.9,3.59c0,0.02,0,0.05-0.01,0.07c-0.02,0.17-0.05,0.34-0.05,0.52c0,3.05,2.39,5.43,5.45,5.43
		s5.45-2.39,5.45-5.43c0-0.17-0.03-0.34-0.05-0.51C164.41,152.74,164.41,152.71,164.4,152.68z M163.53,153.28
		c0,1.23-0.46,2.39-1.3,3.26c-0.85,0.88-1.99,1.36-3.21,1.36c-1.22,0-2.36-0.48-3.21-1.36c-0.84-0.87-1.3-2.03-1.3-3.26
		c0-1.24,0.46-2.4,1.3-3.27c0.85-0.88,1.99-1.37,3.21-1.37s2.37,0.48,3.21,1.37C163.06,150.88,163.53,152.04,163.53,153.28z"/>
	<path d="M178.66,148.04h-4.28c-0.08,0-0.09,0.08-0.09,0.18v10.07c0,0.08,0.02,0.16,0.09,0.16h4.19c1.42,0,2.69-0.53,3.59-1.5
		c0.89-0.96,1.38-2.3,1.38-3.78c0-1.61-0.51-2.94-1.47-3.85C181.21,148.5,180,148.04,178.66,148.04z M182.59,153.17
		c0,2.63-1.7,4.47-4.13,4.47h-3.26v-8.78h3.29c1.18,0,2.19,0.38,2.92,1.08C182.18,150.7,182.59,151.82,182.59,153.17z"/>
	<path d="M191.08,147.91l-0.01-0.01c-0.03-0.05-0.05-0.11-0.14-0.11c-0.09,0-0.11,0.05-0.14,0.11l0,0.01
		c-0.94,1.86-4.43,9.05-5.03,10.3c-0.05,0.09-0.07,0.16-0.04,0.2c0.03,0.04,0.09,0.05,0.18,0.05h0.54c0.17,0,0.2-0.06,0.28-0.2
		l1.09-2.29h6.22l1.12,2.35c0.06,0.11,0.09,0.14,0.19,0.14H196c0.07,0,0.12-0.02,0.14-0.05c0.02-0.04,0.02-0.09-0.02-0.17
		C195.52,156.96,192.1,149.97,191.08,147.91z M193.67,155.18h-5.5c0.17-0.35,1.56-3.23,2.44-5.13c0.14-0.31,0.27-0.56,0.31-0.62
		c0.05,0.07,0.17,0.34,0.26,0.53l0.05,0.11C192.14,151.93,193.51,154.82,193.67,155.18z"/>
	<path d="M205.64,157.64h-5.23v-9.46c0-0.09,0-0.13-0.1-0.13h-0.67c-0.11,0-0.13,0.05-0.13,0.15v10.11c0,0.12,0.03,0.15,0.13,0.15
		h6.02c0.14,0,0.15-0.03,0.15-0.19v-0.46C205.8,157.65,205.77,157.64,205.64,157.64z"/>
	<path d="M215.21,148.2c0,0-0.01,0-0.02,0c-0.18,0.1-0.32,0.19-0.44,0.27c-0.09,0.06-0.17,0.11-0.25,0.16
		c-0.09,0.05-0.09,0.11-0.09,0.28v9.3c0,0.06,0.01,0.24,0.1,0.24h0.58c0.17,0,0.18-0.02,0.18-0.24v-9.76c0-0.06,0-0.12-0.01-0.16
		C215.27,148.26,215.26,148.2,215.21,148.2z"/>
	<path d="M223.33,147.84c-2.29,0-4.01,1.63-4.01,3.78c0,1.09,0.36,2.07,1.01,2.77c0.69,0.74,1.66,1.13,2.8,1.13
		c2.12,0,3.05-1.03,3.46-1.95c-0.04,2.6-1.37,4.34-3.33,4.34c-1.2,0-2.1-0.47-2.73-1.42c-0.05-0.08-0.12-0.12-0.19-0.12
		c-0.03,0-0.06,0.01-0.09,0.02c-0.17,0.09-0.37,0.2-0.5,0.31c-0.05,0.04-0.08,0.08-0.08,0.12c0,0.04,0.02,0.08,0.07,0.14
		c0.93,1.22,1.99,1.74,3.53,1.74c2.7,0,4.24-2.16,4.24-5.94C227.49,149.37,225.4,147.84,223.33,147.84z M223.33,148.64
		c1.92,0,3.11,1.58,3.11,3.04c0,1.77-1.39,3.05-3.3,3.05c-1.74,0-2.91-1.25-2.91-3.11c0-0.79,0.3-1.53,0.84-2.08
		C221.64,148.96,222.42,148.64,223.33,148.64z"/>
	<path d="M232.37,148.2c0,0-0.01,0-0.02,0c-0.18,0.1-0.32,0.19-0.44,0.27c-0.09,0.06-0.17,0.11-0.25,0.16
		c-0.09,0.05-0.09,0.11-0.09,0.28v9.3c0,0.06,0.01,0.24,0.1,0.24h0.58c0.17,0,0.18-0.02,0.18-0.24v-9.76c0-0.06,0-0.12-0.01-0.16
		C232.43,148.26,232.42,148.2,232.37,148.2z"/>
	<path d="M240.49,147.84c-2.29,0-4.01,1.63-4.01,3.78c0,1.09,0.36,2.07,1.01,2.77c0.69,0.74,1.66,1.13,2.8,1.13
		c2.12,0,3.05-1.03,3.46-1.95c-0.04,2.6-1.37,4.34-3.33,4.34c-1.21,0-2.1-0.47-2.73-1.42c-0.05-0.08-0.12-0.12-0.19-0.12
		c-0.03,0-0.06,0.01-0.09,0.02c-0.17,0.09-0.37,0.2-0.5,0.31c-0.05,0.04-0.08,0.08-0.09,0.12c0,0.04,0.02,0.08,0.07,0.14
		c0.93,1.22,1.99,1.74,3.53,1.74c2.7,0,4.24-2.16,4.24-5.94C244.65,149.37,242.56,147.84,240.49,147.84z M240.49,148.64
		c1.92,0,3.11,1.58,3.11,3.04c0,1.77-1.39,3.05-3.3,3.05c-1.74,0-2.91-1.25-2.91-3.11c0-0.79,0.3-1.53,0.84-2.08
		C238.8,148.96,239.58,148.64,240.49,148.64z"/>
</g>
</svg>
